# xmcd
#
# Track frame offsets:
# 150
# 11239
# 24566
# 38821
# 51448
# 68011
# 86372
# 105577
# 121211
# 129877
# 146912
# 159874
# 181315
# 196353
# 208354
# 228113
# 247385
# 269260
# 284150
# 303485
# 323065
# 327613
#
# Disc length: 4700 seconds
#
# Revision: 0
# Processed by: cddbd v1.5.1PL0 Copyright (c) Steve Scherf et al.
# Submitted via: Audion 3.0.2 (http://www.panic.com/audion/)
#
DISCID=49125a16
DTITLE=Klaus Nomi - Klaus Nomi/Simple Man
DYEAR=1900
DGENRE=
TTITLE0=Keys of Life
TTITLE1=Lightning Strikes
TTITLE2=Twist
TTITLE3=Nomi Song
TTITLE4=You Don't Owe Me
TTITLE5=Cold Song
TTITLE6=Wasting My Time
TTITLE7=Total Eclipse
TTITLE8=Nomi Chant
TTITLE9=Samson and Delilah (Aria)
TTITLE10=From Beyond
TTITLE11=After the Fall
TTITLE12=Just One Look
TTITLE13=Falling in Love Again
TTITLE14=Icurok
TTITLE15=Rubberband Lazer
TTITLE16=Wayward Sisters/Ding-Dong! The Witch Is Dead
TTITLE17=Three Wishes
TTITLE18=Simple Man
TTITLE19=Death
TTITLE20=Return
TTITLE21=I Feel Love (Live)
EXTD=
EXTT0=
EXTT1=
EXTT2=
EXTT3=
EXTT4=
EXTT5=
EXTT6=
EXTT7=
EXTT8=
EXTT9=
EXTT10=
EXTT11=
EXTT12=
EXTT13=
EXTT14=
EXTT15=
EXTT16=
EXTT17=
EXTT18=
EXTT19=
EXTT20=
EXTT21=
PLAYORDER=
